<?xml version="1.0" encoding="utf-8"?>
<!-- Generator: Adobe Illustrator 15.1.0, SVG Export Plug-In  -->
<!DOCTYPE svg PUBLIC "-//W3C//DTD SVG 1.1//EN" "http://www.w3.org/Graphics/SVG/1.1/DTD/svg11.dtd" [
	<!ENTITY ns_flows "http://ns.adobe.com/Flows/1.0/">
]>
<svg version="1.1"
	 xmlns="http://www.w3.org/2000/svg" xmlns:xlink="http://www.w3.org/1999/xlink" xmlns:a="http://ns.adobe.com/AdobeSVGViewerExtensions/3.0/"
	 x="0px" y="0px" width="445px" height="445px" viewBox="-15.042 -15.042 445 445" enable-background="new -15.042 -15.042 445 445"
	 xml:space="preserve">
<defs>
</defs>
<path fill-rule="evenodd" clip-rule="evenodd" fill="#4D75A3" d="M63.942,0h287.075c35.313,0,63.942,28.628,63.942,63.942v287.075
	c0,35.313-28.629,63.942-63.942,63.942H63.942C28.628,414.959,0,386.33,0,351.017V63.942C0,28.628,28.628,0,63.942,0L63.942,0z"/>
<path fill="#FFFFFF" d="M301.476,210.936c0,0,35.855-50.578,39.419-67.2c1.187-5.936-1.426-9.262-7.6-9.262c0,0-20.659,0-31.106,0
	c-7.124,0-9.737,3.087-11.873,7.6c0,0-16.818,35.834-37.281,58.416c-6.569,7.3-9.909,9.498-13.535,9.498
	c-2.925,0-4.274-2.438-4.274-9.024v-57.702c0-8.073-0.949-10.448-7.598-10.448h-49.866c-3.8,0-6.174,2.209-6.174,5.223
	c0,7.603,11.635,9.319,11.635,29.92v42.505c0,8.549-0.475,11.873-4.512,11.873c-10.685,0-36.093-36.805-50.34-78.598
	c-2.85-8.548-5.937-10.923-14.01-10.923H83.253c-4.512,0-7.836,3.086-7.836,7.597c0,8.311,9.735,46.78,47.967,98.309
	c25.645,34.669,59.363,53.428,89.758,53.428c18.521,0,23.033-3.086,23.033-10.923v-26.596c0-6.649,2.612-9.498,6.411-9.498
	c4.273,0,11.817,1.373,29.444,18.759c20.896,19.947,22.322,28.258,33.721,28.258h34.905c3.562,0,6.887-1.662,6.887-7.599
	c0-7.837-10.212-21.846-25.884-38.469c-6.411-8.548-16.859-17.809-20.184-22.083C296.727,219.01,298.151,216.159,301.476,210.936z"
	/>
</svg>
