<?xml version="1.0" encoding="iso-8859-1"?>
<!-- Generator: Adobe Illustrator 16.0.0, SVG Export Plug-In . SVG Version: 6.00 Build 0)  -->
<!DOCTYPE svg PUBLIC "-//W3C//DTD SVG 1.1//EN" "http://www.w3.org/Graphics/SVG/1.1/DTD/svg11.dtd">
<svg xmlns="http://www.w3.org/2000/svg" xmlns:xlink="http://www.w3.org/1999/xlink" version="1.1" id="Capa_1" x="0px" y="0px" width="512px" height="512px" viewBox="0 0 376.4 376.401" style="enable-background:new 0 0 376.4 376.401;" xml:space="preserve">
<g>
	<g>
		<path d="M267.606,73.764l-9.719-3.288V5.34c0-0.359-0.055-0.7-0.164-1.023c0.22-0.664,0.226-1.407-0.024-2.101    c-0.554-1.601-2.223-2.521-3.885-2.125L111.301,34.093c-1.096,0.268-1.982,1.072-2.356,2.138c-0.225,0.633-0.173,1.303,0,1.936    v299.379l110.375,38.854V79.494L118.653,40.31l-0.785-0.986L223.71,14.06l-51.347,23.948c-1.196,0.566-1.945,1.772-1.9,3.094    c0.006,0.256,0.167,0.457,0.229,0.694v13.195l54.462,20.6v251.89l42.453-25.525V73.764z M251.287,67.827l-69.16-27.097    l69.16-32.248V67.827z" fill="#FF9933"/>
	</g>
</g>
<g>
</g>
<g>
</g>
<g>
</g>
<g>
</g>
<g>
</g>
<g>
</g>
<g>
</g>
<g>
</g>
<g>
</g>
<g>
</g>
<g>
</g>
<g>
</g>
<g>
</g>
<g>
</g>
<g>
</g>
</svg>
