<?xml version="1.0" encoding="UTF-8" standalone="no"?>
<svg
   xmlns:dc="http://purl.org/dc/elements/1.1/"
   xmlns:cc="http://creativecommons.org/ns#"
   xmlns:rdf="http://www.w3.org/1999/02/22-rdf-syntax-ns#"
   xmlns:svg="http://www.w3.org/2000/svg"
   xmlns="http://www.w3.org/2000/svg"
   style="enable-background:new"
   version="1.1"
   id="svg2"
   viewBox="0 0 1052.3622 744.09448"
   height="210mm"
   width="297mm">
  <defs
     id="defs4">
    <filter
       id="filter4220"
       style="color-interpolation-filters:sRGB">
      <feBlend
         id="feBlend4222"
         in2="BackgroundImage"
         mode="darken" />
    </filter>
  </defs>
  <metadata
     id="metadata7">
    <rdf:RDF>
      <cc:Work
         rdf:about="">
        <dc:format>image/svg+xml</dc:format>
        <dc:type
           rdf:resource="http://purl.org/dc/dcmitype/StillImage" />
        <dc:title></dc:title>
        <dc:title></dc:title>
      </cc:Work>
    </rdf:RDF>
  </metadata>
  <g
     transform="translate(0,-308.26772)"
     id="layer1">
    <g
       style="opacity:0.98999999;filter:url(#filter4220)"
       transform="matrix(1.5712173,0,0,1.5712173,29.849656,203.52287)"
       id="g4181">
      <g
         transform="translate(51.478243,-2.3399201)"
         id="g4137">
	<g
   id="g4139">
		<path
   style="fill:#71838f"
   d="m 553.89147,94.000071 -24.484,0 0,-7.116 c 0,-9.255 -7.536,-16.783 -16.786,-16.783 l -512.15618558,0 c -9.25699972,0 -16.78499942,7.528 -16.78499942,16.783 l 0,7.116 -24.482001,0 c -15.72,0 -28.458,12.745999 -28.458,28.457999 l 0,39.844 c 0,12.646 8.306,23.24 19.72,26.95 l 0,110.82573 -10.196,30.844 c -1.64,4.952 1.049,10.294 6.006,11.934 0.983,0.333 1.98,0.48 2.963,0.48 3.963,0 7.663,-2.516 8.97,-6.486 l 10.713,-32.416 0.442,0 0,-1.334 10.198,-30.845 c 1.640001,-4.951 -1.049,-10.299 -6.006,-11.934 -1.397,-0.464 -2.819,-0.549 -4.184,-0.369 l 0,-69.18973 22.8570009,0 0,106.54673 528.6501851,0 0,-106.54573 17.165,0 0,64.50673 c -2.404,-1.856 -5.663,-2.531 -8.754,-1.503 -4.957,1.635 -7.646,6.981 -6.001,11.934 l 21.347,64.595 c 1.309,3.971 5,6.486 8.965,6.486 0.981,0 1.983,-0.153 2.964,-0.48 4.957,-1.635 7.646,-6.981 6.007,-11.938 l -6.587,-19.929 0.96,0 0,-113.97773 c 14.27,-1.54 25.413,-13.479 25.413,-28.155 l 0,-39.844 c -0.006,-15.717 -12.746,-28.457999 -28.461,-28.457999 z m -559.4111851,-7.116 c 0,-3.299 2.685,-5.983 5.98499952,-5.983 l 512.15518558,0 c 3.302,0 5.985,2.684 5.985,5.983 l 0,7.116 -524.1251851,0 z M 510.06947,190.76307 l 0,95.74573 -507.0511856,0 0,-95.74573 0,-20.633 c 0,-8.126 4.084,-19.498 8.9149996,-24.835 l 8.707,-9.605 471.795186,0 8.712,9.605 c 4.841,5.337 8.917,16.709 8.917,24.835 l 0,20.633 z"
   id="path4141" />

		<path
   style="fill:#71838f"
   d="m 489.14447,152.63607 -465.201186,0 c -2.985,0 -5.4,2.418 -5.4,5.399 0,2.979 2.415,5.4 5.4,5.4 l 465.201186,0 c 2.984,0 5.399,-2.421 5.399,-5.4 0,-2.981 -2.415,-5.399 -5.399,-5.399 z"
   id="path4143" />

	</g>

</g>
      <g
         id="g4145">
</g>
      <g
         id="g4147">
</g>
      <g
         id="g4149">
</g>
      <g
         id="g4151">
</g>
      <g
         id="g4153">
</g>
      <g
         id="g4155">
</g>
      <g
         id="g4157">
</g>
      <g
         id="g4159">
</g>
      <g
         id="g4161">
</g>
      <g
         id="g4163">
</g>
      <g
         id="g4165">
</g>
      <g
         id="g4167">
</g>
      <g
         id="g4169">
</g>
      <g
         id="g4171">
</g>
      <g
         id="g4173">
</g>
    </g>
  </g>
</svg>
