<?xml version="1.0" encoding="UTF-8" standalone="no"?>
<svg id="svg2" xmlns:rdf="http://www.w3.org/1999/02/22-rdf-syntax-ns#" xmlns="http://www.w3.org/2000/svg" height="59.955" width="211.89" version="1.1" xmlns:cc="http://creativecommons.org/ns#" xmlns:dc="http://purl.org/dc/elements/1.1/" viewBox="0 0 211.88587 59.954839">
 <g id="layer1" transform="translate(.0035630 -991.96)">
  <g id="g4181" transform="matrix(.29441 0 0 .29441 -.0035630 984.93)">
   <g id="g4137">
    <g id="g4139" fill="#71838f">
     <path id="path4141" d="m691.24 47.78h-24.484v-7.116c0-9.255-7.536-16.783-16.786-16.783h-580.24c-9.257 0-18.928 7.7796-16.785 16.783v7.116h-24.482c-15.725 0-28.463 6.955-28.463 22.667v19.162c0 12.646 8.306 20.758 19.72 24.468v70.19l-10.196 30.844c-1.64 4.952 1.049 10.294 6.006 11.934 0.983 0.333 1.98 0.48 2.963 0.48 3.963 0 7.663-2.516 8.97-6.486l10.713-32.416 0.26369-0.80924 0.17831-0.52476 10.198-30.845c1.64-4.951-1.049-10.299-6.006-11.934-1.397-0.464-2.819-0.549-4.184-0.369v-28.554h22.857v65.911h596.74v-65.91h17.165v23.871c-2.404-1.856-5.663-2.531-8.754-1.503-4.957 1.635-7.646 6.981-6.001 11.934l21.347 64.595c1.309 3.971 5 6.486 8.965 6.486 0.981 0 1.983-0.153 2.964-0.48 4.957-1.635 7.646-6.981 6.007-11.938l-6.587-19.929 0.96 3.5303v-76.873c14.27-1.54 25.413-10.997 25.413-25.673v-19.162c-0.02-15.715-12.76-22.665-28.47-22.665zm-627.5-7.116c0-3.299 2.685-5.983 5.985-5.983h580.24c3.302 0 5.985 2.684 5.985 5.983v7.116h-592.21zm583.67 74.924v55.11h-575.14v-55.11-18.151c0-8.126 4.084-19.498 8.915-24.835l8.707-9.605h539.88l8.712 9.605c4.841 5.337 8.917 16.709 8.917 24.835v18.151z"/>
     <path id="path4143" d="m626.49 79.943h-533.29c-2.985 0-5.4 2.418-5.4 5.399 0 2.979 2.415 5.4 5.4 5.4h533.29c2.984 0 5.399-2.421 5.399-5.4 0-2.981-2.415-5.399-5.399-5.399z"/>
    </g>
   </g>
  </g>
 </g>
</svg>
