<?xml version="1.0" encoding="iso-8859-1"?>
<!-- Generator: Adobe Illustrator 16.0.0, SVG Export Plug-In . SVG Version: 6.00 Build 0)  -->
<!DOCTYPE svg PUBLIC "-//W3C//DTD SVG 1.1//EN" "http://www.w3.org/Graphics/SVG/1.1/DTD/svg11.dtd">
<svg xmlns="http://www.w3.org/2000/svg" xmlns:xlink="http://www.w3.org/1999/xlink" version="1.1" id="Capa_1" x="0px" y="0px" width="512px" height="512px" viewBox="0 0 327.094 327.093" style="enable-background:new 0 0 327.094 327.093;" xml:space="preserve">
<g>
	<g>
		<path d="M247.946,251.854c12.378,0,22.416-10.035,22.416-22.413v-94.553c0-12.378,1.257-26.561,2.802-31.675    c1.541-5.116,2.802-9.264,2.802-9.264H77.046c-12.378,0-22.414,10.036-22.414,22.414v113.079    c0,12.378,10.036,22.413,22.414,22.413H247.946z" fill="#FF9933"/>
		<path d="M46.228,262.361H31.284V118h10.741V81.577H285.77V118h9.806V257.5h-14.707v11.163h14.707h16.81h14.709V257.5h-14.709V118    h5.141V75.973c0-12.378-10.038-22.413-22.416-22.413H32.685c-12.378,0-22.414,10.035-22.414,22.413V118h4.204v144.361H0v11.173    h46.228V262.361z M275.966,59.243c3.861,0,7.002,3.138,7.002,7.004c0,3.866-3.141,7.004-7.002,7.004    c-3.865,0-7.004-3.138-7.004-7.004C268.962,62.381,272.101,59.243,275.966,59.243z" fill="#FF9933"/>
	</g>
</g>
<g>
</g>
<g>
</g>
<g>
</g>
<g>
</g>
<g>
</g>
<g>
</g>
<g>
</g>
<g>
</g>
<g>
</g>
<g>
</g>
<g>
</g>
<g>
</g>
<g>
</g>
<g>
</g>
<g>
</g>
</svg>
