<?xml version="1.0" encoding="iso-8859-1"?>
<!-- Generator: Adobe Illustrator 16.0.0, SVG Export Plug-In . SVG Version: 6.00 Build 0)  -->
<!DOCTYPE svg PUBLIC "-//W3C//DTD SVG 1.1//EN" "http://www.w3.org/Graphics/SVG/1.1/DTD/svg11.dtd">
<svg xmlns="http://www.w3.org/2000/svg" xmlns:xlink="http://www.w3.org/1999/xlink" version="1.1" id="Capa_1" x="0px" y="0px" width="512px" height="512px" viewBox="0 0 358.323 358.323" style="enable-background:new 0 0 358.323 358.323;" xml:space="preserve">
<g>
	<g>
		<path d="M62.929,250.649L48.412,265.64l199.435,15.479l3.989-9.078c2.021-4.609,3.665-12.435,3.665-17.477V146.88    c0,0-3.044-36.775,9.122-39.208l-188.587-3.985c0,0-10.346,9.733-9.131,39.54c0.95,23.163,0.362,70.217,0.058,90.037    C66.893,238.312,65.078,246.094,62.929,250.649z" fill="#FF9933"/>
		<path d="M11.555,127.109h43.616v107.715l-18.767,15.016v5.018l10.948,2.283l14.148-10.948v-16.423    c-0.088,0.067-0.088-102.66-0.088-102.66c0.03,0-1.583-13.743,5.194-16.729H19.467l9.597-17.104l256.707,6.146l-7.41,18.009    l-13.726-0.822c-8.731,10.495-2.947,25.382-2.947,25.382l36.401,1.879v90.454h-37.936v10.948h37.936v5.023h0.548l-12.866,18.712    v1.821v5.931h12.318l24.186-33.308v-10.948h-11.41v-87.967l30.129,1.553c6.881,0.353,13.548-2.271,14.894-5.855    c1.34-3.592,2.437-12.083,2.437-18.967V97.303c0-6.884-5.584-12.602-12.471-12.757L29.499,77.208    c-6.884-0.165-15,4.683-18.124,10.823L5.657,99.266C2.533,105.401,0,113.515,0,117.375c0,3.863,2.588,6.927,5.776,6.838    l5.779-0.149V127.109z" fill="#FF9933"/>
	</g>
</g>
<g>
</g>
<g>
</g>
<g>
</g>
<g>
</g>
<g>
</g>
<g>
</g>
<g>
</g>
<g>
</g>
<g>
</g>
<g>
</g>
<g>
</g>
<g>
</g>
<g>
</g>
<g>
</g>
<g>
</g>
</svg>
