<?xml version="1.0" encoding="iso-8859-1"?>
<!-- Generator: Adobe Illustrator 16.0.0, SVG Export Plug-In . SVG Version: 6.00 Build 0)  -->
<!DOCTYPE svg PUBLIC "-//W3C//DTD SVG 1.1//EN" "http://www.w3.org/Graphics/SVG/1.1/DTD/svg11.dtd">
<svg xmlns="http://www.w3.org/2000/svg" xmlns:xlink="http://www.w3.org/1999/xlink" version="1.1" id="Capa_1" x="0px" y="0px" width="512px" height="512px" viewBox="0 0 322.186 322.186" style="enable-background:new 0 0 322.186 322.186;" xml:space="preserve">
<g>
	<g>
		<path d="M320.345,103.689h-17.354v58.277c6.761,5.2,12.651,11.459,17.354,18.594V103.689z" fill="#FF9933"/>
		<path d="M68.251,221.329v18.863h113.851c-1.339-5.674-2.13-11.56-2.13-17.64c0-0.416,0.053-0.817,0.063-1.229H68.251V221.329z" fill="#FF9933"/>
		<path d="M68.251,198.574h-2.7h-2.7H45.5v17.355h17.352h2.7h2.7h112.058c0.518-6.012,1.735-11.818,3.565-17.355H68.251z" fill="#FF9933"/>
		<path d="M297.59,103.689v-2.7v-2.7V79.426h-17.35v18.863v2.7v2.7v46.195c6.176,2.025,11.981,4.828,17.35,8.269V103.689z" fill="#FF9933"/>
		<path d="M196.035,175.825H68.251h-2.7h-2.7H45.5h-2.7h-2.7H22.75v17.35h17.35h2.7h2.7h17.352h2.7h2.7h117.605    C188.473,186.919,191.937,181.119,196.035,175.825z" fill="#FF9933"/>
		<path d="M274.841,103.689v-2.7v-2.7V79.426v-2.7v-2.7v-17.35h-17.35v17.35v2.7v2.7v18.863v2.7v2.7v42.422    c5.975,0.082,11.771,0.891,17.35,2.273V103.689z" fill="#FF9933"/>
		<path d="M0,170.424h17.35h2.7h2.7h17.35h2.7h2.7h17.352h2.7h2.7h132.393c13.036-13.945,31.177-22.984,51.447-24.147v-42.588v-2.7    v-2.7V79.426v-2.7v-2.7v-17.35v-2.7v-2.7v-17.35H0V170.424z M17.35,59.521c0.783-1.279,1.674-2.479,2.7-3.562    c0.686-0.726,1.448-1.363,2.23-1.988c1.324-1.055,2.737-1.978,4.288-2.7c2.745-1.276,5.767-2.041,8.991-2.041    s6.249,0.765,8.991,2.041c1.55,0.723,2.969,1.646,4.287,2.7c1.021,0.814,1.962,1.711,2.818,2.7    c3.262,3.752,5.303,8.596,5.303,13.958c0,1.16-0.161,2.278-0.34,3.391c-0.15,0.928-0.377,1.813-0.641,2.7    c-0.277,0.923-0.556,1.835-0.947,2.7c-1.959,4.338-5.339,7.842-9.531,10.054c-0.868,0.461-1.759,0.875-2.7,1.21    c-0.883,0.319-1.764,0.638-2.7,0.838c-1.469,0.316-2.979,0.507-4.54,0.507c-4.828,0-9.229-1.659-12.81-4.351    c-0.959-0.726-1.872-1.503-2.7-2.379c-1.026-1.083-1.917-2.283-2.7-3.562c-1.985-3.246-3.19-7.027-3.19-11.114    C14.159,66.548,15.364,62.767,17.35,59.521z M14.159,106.571h3.19h2.7h2.7h17.35h2.7h2.7h17.352h2.7h2.7h122.668v18.354H68.251    h-2.7h-2.7H45.5h-2.7h-2.7H22.75h-2.7h-2.7h-3.19V106.571z M14.159,138.497h3.19h2.7h2.7h17.35h2.7h2.7h17.352h2.7h2.7h122.668    v18.354H68.251h-2.7h-2.7H45.5h-2.7h-2.7H22.75h-2.7h-2.7h-3.19V138.497z" fill="#FF9933"/>
		<path d="M246.649,231.902c0.644-2.151,0.96-5.263,0.96-9.323c0-0.442-0.011-0.833-0.021-1.25c-0.021-0.965-0.053-1.861-0.105-2.7    c-0.063-0.985-0.153-1.882-0.264-2.699c-0.153-1.07-0.327-2.041-0.57-2.806c-0.643-2.046-1.993-3.063-4.055-3.063    c-2.067,0-3.428,1.018-4.093,3.063c-0.247,0.765-0.438,1.729-0.596,2.806c-0.116,0.807-0.211,1.714-0.274,2.699    c-0.053,0.839-0.095,1.735-0.105,2.7c-0.01,0.417-0.031,0.808-0.031,1.25c0,4.061,0.338,7.172,1.007,9.323    c0.665,2.146,2.025,3.228,4.093,3.228C244.656,235.129,246.006,234.048,246.649,231.902z" fill="#FF9933"/>
		<path d="M298.097,235.129c2.062,0,3.412-1.075,4.055-3.228c0.644-2.156,0.96-5.263,0.96-9.323c0-1.424-0.047-2.679-0.121-3.854    c-0.137-2.336-0.406-4.234-0.833-5.596c-0.369-1.187-1.013-1.982-1.867-2.483c-0.611-0.364-1.329-0.585-2.188-0.585    c-0.185,0-0.332,0.058-0.512,0.073c-1.761,0.169-2.974,1.14-3.586,3.006c-0.242,0.76-0.432,1.725-0.59,2.8    c-0.116,0.808-0.211,1.715-0.274,2.7c-0.053,0.839-0.095,1.735-0.105,2.7c-0.011,0.417-0.032,0.807-0.032,1.25    c0,4.061,0.338,7.172,1.002,9.323C294.669,234.048,296.03,235.129,298.097,235.129z" fill="#FF9933"/>
		<path d="M275.231,218.628c-0.058-0.985-0.147-1.882-0.264-2.699c-0.147-1.07-0.326-2.041-0.569-2.806    c-0.644-2.046-1.993-3.063-4.05-3.063c-2.067,0-3.428,1.018-4.092,3.063c-0.254,0.765-0.443,1.729-0.602,2.806    c-0.116,0.807-0.206,1.714-0.274,2.699c-0.053,0.839-0.09,1.735-0.105,2.7c-0.005,0.417-0.026,0.808-0.026,1.25    c0,4.061,0.332,7.172,1.008,9.323c0.664,2.146,2.024,3.228,4.092,3.228c2.057,0,3.406-1.075,4.05-3.228    c0.644-2.156,0.965-5.263,0.965-9.323c0-0.442-0.016-0.833-0.026-1.25C275.316,220.364,275.284,219.467,275.231,218.628z" fill="#FF9933"/>
		<path d="M256.474,156.856c-0.564,0-1.118,0.071-1.683,0.087c-0.907,0.021-1.804,0.076-2.7,0.135    c-13.31,0.88-25.518,5.708-35.49,13.347c-1.139,0.876-2.235,1.762-3.312,2.7c-1.013,0.886-2.02,1.762-2.969,2.7    c-5.089,5.025-9.308,10.899-12.551,17.35c-0.448,0.896-0.892,1.793-1.303,2.7c-0.391,0.896-0.76,1.793-1.118,2.699    c-2.151,5.475-3.633,11.28-4.239,17.355c-0.09,0.881-0.085,1.798-0.138,2.699c-0.053,0.892-0.121,1.788-0.137,2.7    c-0.006,0.417-0.059,0.817-0.059,1.229c0,6.117,0.902,12.013,2.463,17.634c0.253,0.907,0.49,1.814,0.78,2.7    c0.296,0.918,0.654,1.804,0.992,2.7c9.339,24.906,33.296,42.667,61.467,42.667s52.123-17.761,61.467-42.667    c0.338-0.896,0.691-1.782,0.992-2.7c0.29-0.886,0.527-1.793,0.78-2.7c0.227-0.812,0.438-1.64,0.638-2.468    c1.155-4.873,1.83-9.936,1.83-15.161s-0.675-10.288-1.83-15.161c-2.842-12.013-8.923-22.771-17.354-31.225    c-0.854-0.864-1.793-1.65-2.7-2.468c-0.886-0.796-1.767-1.598-2.7-2.347c-5.188-4.171-11.032-7.541-17.35-9.998    c-0.886-0.346-1.782-0.681-2.7-0.986c-0.896-0.303-1.782-0.596-2.699-0.859c-5.517-1.604-11.333-2.51-17.35-2.603    C257.149,156.906,256.817,156.856,256.474,156.856z M217.524,220.554c0.575-0.612,0.949-1.266,1.292-1.931    c0.454-0.859,0.718-1.761,0.786-2.7c0.011-0.152,0.09-0.284,0.09-0.438c0-1.498-0.412-2.736-1.239-3.729    c-0.828-0.991-2.015-1.486-3.555-1.486c-2.114,0-3.549,0.791-4.313,2.367c-0.354,0.723-0.554,1.883-0.675,3.291    c-0.032,0.363-0.09,0.638-0.101,1.049h-6.75c0.021-0.39,0.101-0.686,0.127-1.049c0.194-2.494,0.653-4.625,1.497-6.238    c1.861-3.523,5.147-5.284,9.883-5.284c3.738,0,6.718,1.033,8.923,3.101c2.209,2.078,3.316,4.81,3.316,8.227    c0,0.068-0.026,0.127-0.031,0.195c-0.016,0.943-0.206,1.83-0.428,2.699c-0.242,0.949-0.653,1.841-1.144,2.7    c-0.259,0.454-0.412,0.949-0.744,1.377c-1.022,1.35-2.71,2.848-5.052,4.503l-2.784,1.973c-1.74,1.234-2.933,2.125-3.575,2.679    c-0.644,0.554-1.182,1.197-1.625,1.925h15.42v6.112h-24.184c0.068-2.531,0.611-4.852,1.635-6.94    c0.991-2.362,3.332-4.852,7.019-7.482c2.489-1.783,4.271-3.159,5.395-4.15C217.023,221.039,217.313,220.775,217.524,220.554z     M233.128,236.052c-1.814-3.148-2.716-7.641-2.716-13.474c0-0.442,0.042-0.822,0.058-1.25c0.021-0.923,0.032-1.851,0.111-2.7    c0.079-0.965,0.221-1.829,0.363-2.699c0.443-2.705,1.149-5.025,2.188-6.851c1.809-3.164,4.963-4.746,9.466-4.746    c4.498,0,7.652,1.582,9.472,4.746c1.038,1.825,1.745,4.146,2.188,6.851c0.142,0.87,0.279,1.734,0.363,2.699    c0.068,0.85,0.085,1.777,0.111,2.7c0.01,0.428,0.058,0.808,0.058,1.25c0,5.833-0.907,10.325-2.721,13.474    c-1.208,2.104-3.069,3.443-5.475,4.14c-1.202,0.349-2.494,0.585-3.991,0.585c-1.503,0-2.79-0.236-3.992-0.585    C236.198,239.496,234.331,238.157,233.128,236.052z M288.631,209.079c1.734-3.037,4.74-4.577,8.959-4.693    c0.18-0.011,0.322-0.053,0.507-0.053c0.791,0,1.487,0.116,2.193,0.211c0.981,0.138,1.878,0.369,2.7,0.69    c1.962,0.775,3.512,2.01,4.566,3.855c1.81,3.164,2.716,7.668,2.716,13.5c0,5.827-0.906,10.32-2.716,13.469    c-1.213,2.099-3.068,3.438-5.474,4.134c-1.202,0.354-2.499,0.591-3.992,0.591c-1.503,0-2.789-0.237-3.991-0.591    c-2.405-0.696-4.267-2.035-5.469-4.134c-1.819-3.148-2.716-7.642-2.716-13.469c0-0.443,0.042-0.833,0.053-1.255    c0.021-0.929,0.037-1.856,0.116-2.7c0.079-0.96,0.221-1.835,0.358-2.7C286.88,213.224,287.587,210.904,288.631,209.079z     M282.002,215.929c0.137,0.87,0.274,1.734,0.358,2.699c0.068,0.85,0.085,1.777,0.116,2.7c0.011,0.428,0.053,0.808,0.053,1.25    c0,5.833-0.907,10.325-2.721,13.474c-1.208,2.104-3.069,3.443-5.475,4.14c-1.196,0.349-2.494,0.585-3.986,0.585    c-1.503,0-2.795-0.236-3.992-0.585c-2.404-0.706-4.266-2.035-5.469-4.14c-1.813-3.148-2.721-7.641-2.721-13.474    c0-0.442,0.042-0.822,0.053-1.25c0.026-0.923,0.042-1.851,0.116-2.7c0.084-0.965,0.222-1.829,0.363-2.699    c0.438-2.705,1.15-5.025,2.188-6.851c1.814-3.164,4.968-4.746,9.472-4.746c4.493,0,7.646,1.582,9.46,4.746    C280.847,210.904,281.559,213.224,282.002,215.929z" fill="#FF9933"/>
	</g>
</g>
<g>
</g>
<g>
</g>
<g>
</g>
<g>
</g>
<g>
</g>
<g>
</g>
<g>
</g>
<g>
</g>
<g>
</g>
<g>
</g>
<g>
</g>
<g>
</g>
<g>
</g>
<g>
</g>
<g>
</g>
</svg>
