<?xml version="1.0" encoding="iso-8859-1"?>
<!-- Generator: Adobe Illustrator 16.0.0, SVG Export Plug-In . SVG Version: 6.00 Build 0)  -->
<!DOCTYPE svg PUBLIC "-//W3C//DTD SVG 1.1//EN" "http://www.w3.org/Graphics/SVG/1.1/DTD/svg11.dtd">
<svg xmlns="http://www.w3.org/2000/svg" xmlns:xlink="http://www.w3.org/1999/xlink" version="1.1" id="Capa_1" x="0px" y="0px" width="512px" height="512px" viewBox="0 0 266.322 266.322" style="enable-background:new 0 0 266.322 266.322;" xml:space="preserve">
<g>
	<g>
		<path d="M237.437,2.982c-10.785,0-20.194,5.955-25.15,14.738c-0.645-0.091-1.279-0.196-1.951-0.196H14.337    C6.417,17.525,0,23.944,0,31.862v157.673c0,7.915,6.417,14.337,14.337,14.337c7.918,0,14.337-6.422,14.337-14.337V79.634    l20.603,0.437c-5.276,0-9.558,4.28-9.558,9.558V247.3c0,5.278,4.282,9.558,9.558,9.558c5.276,0,9.558-4.279,9.558-9.558V99.183    h15.501v148.112c0,2.642,2.142,4.778,4.779,4.778h31.314c4.396,6.763,11.989,11.267,20.645,11.267    c13.595,0,24.656-11.065,24.656-24.661c0-4.825-1.446-9.292-3.855-13.096h36.571c3.202,12.461,14.496,21.712,27.947,21.712    c15.924,0,28.879-12.956,28.879-28.88c0-15.925-12.955-28.88-28.879-28.88c-13.451,0-24.745,9.25-27.947,21.711h-56.354    l30.616-86.535c13.6-2.329,23.993-14.179,23.993-28.437c0-6.203-1.979-11.938-5.32-16.645h40.095v44.174    c0,2.686,1.115,5.099,2.898,6.837c-9.498,2.886-16.475,11.625-16.475,22.042c0,12.76,10.379,23.14,23.139,23.14    s23.14-10.38,23.14-23.14c0-10.427-6.973-19.161-16.475-22.042c1.782-1.734,2.894-4.151,2.894-6.837V70.076    c0-5.281-4.275-9.558-9.559-9.558H28.674V46.204h181.661c0.672,0,1.307-0.105,1.946-0.196    c4.961,8.786,14.365,14.739,25.155,14.739c15.925,0,28.885-12.951,28.885-28.88C266.322,15.938,253.362,2.982,237.437,2.982z     M216.394,206.757c6.436,0,11.662,5.236,11.662,11.662c0,6.437-5.227,11.654-11.662,11.654c-6.422,0-11.659-5.228-11.659-11.654    C204.735,211.993,209.962,206.757,216.394,206.757z M248.438,152.688c0,9.6-7.804,17.403-17.403,17.403    c-9.596,0-17.404-7.804-17.404-17.403c0-9.601,7.809-17.401,17.404-17.401C240.634,135.287,248.438,143.088,248.438,152.688z     M144.25,238.688c0,7.271-5.906,13.175-13.175,13.175c-7.264,0-13.17-5.903-13.17-13.175c0-7.028,5.544-12.731,12.478-13.101    h1.386C138.706,225.957,144.25,231.66,144.25,238.688z M157.832,84.619c6.422,0,11.653,5.229,11.653,11.66    c0,6.434-5.231,11.656-11.653,11.656c-6.437,0-11.663-5.227-11.663-11.656C146.168,89.849,151.395,84.619,157.832,84.619z     M83.895,99.183h45.201c1.125,11.187,8.669,20.481,18.873,24.203l-32.774,92.64c-0.474,1.335-0.487,2.753-0.154,4.088    c-5.232,4.527-8.616,11.127-8.616,18.565c0,1.316,0.191,2.576,0.385,3.837H83.895V99.183z M237.437,43.527    c-6.426,0-11.662-5.231-11.662-11.66c0-6.427,5.236-11.656,11.662-11.656c6.427,0,11.659,5.234,11.659,11.656    C249.096,38.296,243.864,43.527,237.437,43.527z" fill="#FF9933"/>
	</g>
</g>
<g>
</g>
<g>
</g>
<g>
</g>
<g>
</g>
<g>
</g>
<g>
</g>
<g>
</g>
<g>
</g>
<g>
</g>
<g>
</g>
<g>
</g>
<g>
</g>
<g>
</g>
<g>
</g>
<g>
</g>
</svg>
