<?xml version="1.0" encoding="iso-8859-1"?>
<!-- Generator: Adobe Illustrator 16.0.0, SVG Export Plug-In . SVG Version: 6.00 Build 0)  -->
<!DOCTYPE svg PUBLIC "-//W3C//DTD SVG 1.1//EN" "http://www.w3.org/Graphics/SVG/1.1/DTD/svg11.dtd">
<svg xmlns="http://www.w3.org/2000/svg" xmlns:xlink="http://www.w3.org/1999/xlink" version="1.1" id="Capa_1" x="0px" y="0px" width="512px" height="512px" viewBox="0 0 327.206 327.206" style="enable-background:new 0 0 327.206 327.206;" xml:space="preserve">
<g>
	<g>
		<path d="M0,264.437h69.217l-1.814,29.647l-0.185,3.012H56.993v20.286h206.416v-20.286h-10.22l-0.19-3.012l-1.813-29.647h69.219    v-80.04c4.356-10.604,6.803-22.188,6.803-34.349c0-49.974-40.658-90.629-90.629-90.629c-1.529,0-3.021,0.155-4.535,0.232    l-2.626-49.826H90.985l-4.343,82.458H61.852L0,144.279V264.437z M46.192,187.951H29.906v-27.098h16.287V187.951z M309.498,135.111    c0.606,2.99,0.976,6.059,1.213,9.168c0.147,1.911,0.29,3.823,0.29,5.774c0,0.804-0.095,1.587-0.121,2.381    c-1.14,35.833-27.686,65.295-62.211,70.975c-3.95,0.644-7.968,1.07-12.092,1.07c-1.382,0-2.722-0.131-4.082-0.205    c-22.159-1.208-41.733-12.107-54.58-28.571c-3.86-4.952-7.146-10.368-9.666-16.2c-3.214-7.431-5.202-15.485-5.827-23.926    c-0.135-1.832-0.282-3.662-0.282-5.523c0-1.951,0.147-3.863,0.293-5.774c0.211-2.732,0.551-5.427,1.047-8.068    c0.345-1.83,0.793-3.618,1.273-5.4c0.132-0.49,0.245-0.991,0.385-1.484c0.382-1.321,0.825-2.618,1.284-3.916    c0.833-2.352,1.77-4.643,2.824-6.884c4.809-10.223,11.812-19.195,20.481-26.243c9.239-7.507,20.303-12.841,32.411-15.232    c1.767-0.351,3.56-0.602,5.368-0.823c1.777-0.213,3.575-0.334,5.384-0.419c1.229-0.061,2.441-0.189,3.687-0.189    C272.5,75.624,302.559,101.208,309.498,135.111z M236.83,295.07H83.576l1.875-30.634h149.502L236.83,295.07z M70.978,118.526    h14.289h5.405h5.411l1.382-26.243l3.771-71.658h117.935l2.115,40.186c-5.69,0.973-11.19,2.479-16.464,4.466V53.663h-89.234v18.441    h74.991c-9.028,5.35-17.107,12.145-23.775,20.184c-6.434,7.755-11.51,16.638-15.088,26.243c-0.416,1.113-0.859,2.215-1.231,3.349    c-0.385,1.168-0.714,2.35-1.049,3.531c-0.367,1.297-0.702,2.6-1.01,3.916H90.104h-5.405H70.978c-2.982,0-5.399-2.418-5.399-5.4    C65.578,120.946,67.99,118.526,70.978,118.526z" fill="#FF9933"/>
		<path d="M222.739,88.46c-4.034,0.907-7.915,2.188-11.622,3.828c-12.298,5.437-22.513,14.689-29.205,26.243    c-1.281,2.226-2.488,4.504-3.496,6.887c-0.543,1.274-0.986,2.597-1.439,3.913c-0.174,0.499-0.385,0.984-0.549,1.487    c-0.569,1.764-1.033,3.567-1.444,5.4c-0.591,2.634-1.028,5.318-1.281,8.065c-0.175,1.901-0.29,3.823-0.29,5.774    c0,1.861,0.115,3.697,0.279,5.524c0.754,8.58,3.206,16.669,7.051,23.925c3.206,6.06,7.383,11.513,12.303,16.2    c10.257,9.793,23.777,16.147,38.76,17.275c1.587,0.122,3.169,0.243,4.772,0.243c3.902,0,7.699-0.406,11.406-1.081    c27.628-5.073,49.006-28.129,51.484-56.563c0.158-1.827,0.279-3.663,0.279-5.524c0-1.951-0.121-3.868-0.29-5.774    c-0.77-8.39-3.18-16.295-6.913-23.425c-10.562-20.163-31.667-33.971-55.956-33.971c-1.045,0-2.067,0.108-3.102,0.158    c-1.813,0.084-3.606,0.243-5.379,0.48C226.294,87.764,224.501,88.059,222.739,88.46z M288.604,144.279    c0.211,1.896,0.338,3.817,0.338,5.774c0,1.866-0.105,3.707-0.296,5.523c-2.394,22.702-19.348,41.117-41.327,45.727    c-3.465,0.728-7.057,1.117-10.742,1.117c-1.835,0-3.649-0.095-5.432-0.284c-7.262-0.749-14.064-3.017-20.14-6.434    c-7.071-3.977-13.136-9.524-17.697-16.2c-4.757-6.961-7.873-15.119-8.802-23.926c-0.189-1.816-0.295-3.657-0.295-5.523h51.911    v-5.774v-14.953v-10.8V97.704c0.148,0,0.301-0.021,0.454-0.021C263.498,97.683,285.726,118.112,288.604,144.279z" fill="#FF9933"/>
	</g>
</g>
<g>
</g>
<g>
</g>
<g>
</g>
<g>
</g>
<g>
</g>
<g>
</g>
<g>
</g>
<g>
</g>
<g>
</g>
<g>
</g>
<g>
</g>
<g>
</g>
<g>
</g>
<g>
</g>
<g>
</g>
</svg>
